# xmcd
#
# Track frame offsets:
#	150
#	16555
#	35722
#	50997
#	67897
#	81842
#	94290
#	105372
#	111450
#	125525
#	136812
#	149487
#	162982
#	177630
#	189380
#	201645
#	212372
#	225805
#	234775
#	241112
#	248112
#	257367
#	269335
#	280570
#	290262
#	302390
#
# Disc length: 4305 seconds
#
# Revision: 0
# Processed by: cddbd v1.5.2PL0 Copyright (c) Steve Scherf et al.
# Submitted via: EasyCDDAExtractor 12.0.7.1
#
DISCID=6410cf1a
DTITLE=Igreja Presbiteriana do Brasil - Novo Cântico vol. 11
DYEAR=2007
DGENRE=Gospel
TTITLE0=Adoração
TTITLE1=O Primeiro Natal
TTITLE2=Pequena Vila de Belém
TTITLE3=Os Pastores no Campo
TTITLE4=Um Pequeno a Repousar
TTITLE5=O Anjo da Paz
TTITLE6=Em Linda Noite
TTITLE7=Jesus Nasceu
TTITLE8=Linda Estrela
TTITLE9=Novas de Amor
TTITLE10=Nasce Jesus
TTITLE11=Louvor Angelical
TTITLE12=O Nascimento de Jesus
TTITLE13=Os Anjos e o Natal
TTITLE14=Noite de Paz
TTITLE15=Mensagem aos Pastores
TTITLE16=Homens Sábios e de Bem
TTITLE17=Jesus, o Messias
TTITLE18=Estrela Cintilante
TTITLE19=No Humilde Presépio
TTITLE20=Na Manjedoura
TTITLE21=A Voz de Jesus
TTITLE22=O Pão da Vida
TTITLE23=Pão Celestial
TTITLE24=Cristo, a Luz do Mundo
TTITLE25=Sossegai
EXTD=
EXTT0=
EXTT1=
EXTT2=
EXTT3=
EXTT4=
EXTT5=
EXTT6=
EXTT7=
EXTT8=
EXTT9=
EXTT10=
EXTT11=
EXTT12=
EXTT13=
EXTT14=
EXTT15=
EXTT16=
EXTT17=
EXTT18=
EXTT19=
EXTT20=
EXTT21=
EXTT22=
EXTT23=
EXTT24=
EXTT25=
PLAYORDER=
